<svg xmlns="http://www.w3.org/2000/svg" viewBox="0 0 100 100"><defs><style>.a{fill:none;}.b{fill:#231815;}</style></defs><title>Artboard 1</title><rect class="a" y="0.02" width="100" height="99.97"/><path class="b" d="M100,85v15H85A15,15,0,0,1,100,85Z"/><path class="b" d="M65,100H35a15,15,0,0,1,30,0Z"/><path class="b" d="M100,35V65a15,15,0,1,1,0-30Z"/><circle class="b" cx="49.99" cy="50" r="15"/><circle class="b" cx="24.98" cy="75" r="15"/><circle class="b" cx="74.98" cy="75" r="15"/><circle class="b" cx="24.98" cy="25" r="15"/><circle class="b" cx="74.98" cy="25" r="15"/><path class="b" d="M15,100H0V85A15,15,0,0,1,15,100Z"/><path class="b" d="M15,50A15,15,0,0,1,0,65V35A15,15,0,0,1,15,50Z"/><path class="b" d="M100,0V15A15,15,0,0,1,85,0Z"/><path class="b" d="M65,0A15,15,0,0,1,50,15,15,15,0,0,1,35,0Z"/><path class="b" d="M15,0A15,15,0,0,1,0,15V0Z"/></svg>