<svg xmlns="http://www.w3.org/2000/svg" viewBox="0 0 140 198"><defs><style>.a{fill:#231815;fill-rule:evenodd;}</style></defs><title>Artboard 1</title><path class="a" d="M4.84,167.78a16.85,16.85,0,0,1-1.71-5.36c-.53-3.4-.9-6.83-1.35-10.25a35.59,35.59,0,0,1-.09-5.69c.08-2.74-.56-5.44-.32-8.2a27.07,27.07,0,0,1,.74-5.63A9.28,9.28,0,0,0,2.62,130c0-3.82,1.68-6.94,4-9.78,1.75-2.19,3.61-4.32,5.56-6.35a57.68,57.68,0,0,1,13.26-10,129.12,129.12,0,0,1,18-8.75c5.05-1.91,10.07-3.94,15.06-6,2.53-1,4.94-2.37,7.48-3.42,10.28-4.24,20.17-9.3,30.17-14.12A134.06,134.06,0,0,0,108,65.19a55.69,55.69,0,0,0,10-7.68A33.45,33.45,0,0,0,125.71,47a21.82,21.82,0,0,1,1.69-3.15c2.18-3.43,4-7.08,6-10.7a3.08,3.08,0,0,1,.95,1.94C135.7,41,137,46.92,138,52.89a60,60,0,0,1-1.2,24.49,5.5,5.5,0,0,1-.33,1c-2.19,4.56-4.92,8.68-9.4,11.34a151.5,151.5,0,0,1-21.73,10.73c-5.49,2.17-11,4.41-16.26,7-3.52,1.74-7.21,3.17-10.88,4.6-6.1,2.38-12,5.17-17.91,8-6.72,3.24-13.41,6.53-20,10-6.85,3.59-13.85,6.94-19.94,11.83a34.15,34.15,0,0,0-6.64,6.44c-1.35,1.87-3.24,3.32-4.5,5.3a16.36,16.36,0,0,0-2,4.38A62.57,62.57,0,0,0,4.84,167.78Zm82.85,28.76a27.27,27.27,0,0,1-4.2-1.21c-6.21-2.25-12.43-4.5-18.66-6.7-9-3.17-17.7-6.87-25.71-12.07a15.71,15.71,0,0,0-2.22-1.2,1.6,1.6,0,0,1-.9-2.08c.52-.93,1.19-.37,1.77,0a10,10,0,0,0,3.43,1A94.53,94.53,0,0,0,60.07,176c5.27-.08,10.55,0,15.83-.32,3.87-.22,7.68-.89,11.54-1.17a21.36,21.36,0,0,0,7.13-1.34c-5.84-1.09-11.44-2.08-17-3.2-4.68-.94-9.33-2.08-14-3a28.88,28.88,0,0,1-6.62-2.08,24.68,24.68,0,0,0-4.16-1.51A48.73,48.73,0,0,1,42.5,159c-7.34-3.91-14.56-8-20-14.56-.65-.79-1.24-.86-2.12-.15a58.11,58.11,0,0,0-8.77,9.38c-3,3.74-4,8.33-4.66,12.95a7.33,7.33,0,0,0,1.33,5.83,21.08,21.08,0,0,0,4.43,4.19,100,100,0,0,0,13.74,7.8,78.89,78.89,0,0,0,8.47,3.79c3.14,1,6.37,1.76,9.55,2.64a124.27,124.27,0,0,0,20.48,4c7.54.77,15.1,1.38,22.65,2.06ZM75.08,7.3c3.49,1.48,7.11,2.68,10.46,4.46,5.52,2.94,11,6,16.48,9a3.32,3.32,0,0,1,1.45,1.19c.29.53.79,1.1.31,1.74s-1,.42-1.55.25a14.82,14.82,0,0,0-5-.53,103,103,0,0,0-11.77.79c-4,.67-8.09,1-12.09,1.71-3.6.64-7.17,1.42-10.81,1.79-.27,0-.57.09-.58.61,1.34.25,2.7.53,4.07.77a102,102,0,0,1,16.42,4.67c5.89,2.08,12,3.52,17.68,6.26,6.62,3.2,13.14,6.52,17.68,12.6.6.8,1.12.72,1.67.05.89-1.09,1.69-2.26,2.63-3.3,1.42-1.56,1.77-3.65,2.86-5.37a83.12,83.12,0,0,0,6-11.11c.5-1.16,1.24-2.47,0-3.71-.12-.12-.2-.49-.13-.57,1.18-1.21,0-1.91-.63-2.62a33.27,33.27,0,0,0-4.73-4.5,102.8,102.8,0,0,0-9.62-6.8,68.2,68.2,0,0,0-15.16-6.81C95.46,6.07,89.91,5,84.49,3.47A76.89,76.89,0,0,0,60.88,1.15a1.92,1.92,0,0,0-1.63.57A127.89,127.89,0,0,1,75.08,7.3Z"/></svg>