<svg xmlns="http://www.w3.org/2000/svg" viewBox="0 0 100 100"><defs><style>.a{fill:#231815;}</style></defs><title>Artboard 2</title><path class="a" d="M94.67,95.42a1.82,1.82,0,0,1,.11-.3H95ZM36.23,96.86a1,1,0,0,1,.19,0l-.22-.18-.11.15ZM97.05,66.61c.74,1.14.34,0,.49,0C96.9,65.84,96.78,65.73,97.05,66.61ZM1.72,74.08,2,75.14l-.13-.87-.07-.18.07-.81ZM3.05,93,3,92.46A.92.92,0,0,0,3.05,93Zm92.33,1.72a1.7,1.7,0,0,0-.3.06l0,.18ZM2.07,59.06c.1.18.16.24.21.26A.71.71,0,0,0,2.07,59.06Zm.71-9.32,0,.46a1.93,1.93,0,0,1,0-.45A1,1,0,0,1,3,49.42a.72.72,0,0,0,0-.16A1.94,1.94,0,0,0,2.78,49.74ZM97.45,9.86a15.4,15.4,0,0,1,.39,2c-.06.29-.12.56-.18.79a.8.8,0,0,1-.18.35.37.37,0,0,1-.51.08c.27,0,.3.4.2.88a6.88,6.88,0,0,1-.21.81l-.15.44-.08.22,0,.11,0,0s-.06.15-.09.24l-.09.3-.17.54.2-.06-.07-.21.07.2.34-.1-.26.34.24.69-.13-.29-.12-.38a6.85,6.85,0,0,0-.5.71c0,.06,0,.13,0,.19l.14.38.08.19.1.3.07.31.06.2.12.41c.08.27.16.55.22.84a6.29,6.29,0,0,1,.13.88c0,.15,0,.3,0,.46s0,.49,0,.73a6.35,6.35,0,0,1-.24.68c-.19-.16-.37-.41-.57-.58l-.18.77a4.11,4.11,0,0,0,.22.58l.09-.14a2.17,2.17,0,0,1,0,.3c.18.34.4.6.6.64-.18.08-.31.63-.33,1.14a2.94,2.94,0,0,0-.3,1,.16.16,0,0,0,.23,0,1.6,1.6,0,0,0,.22-.3l-.1.6c0,.16-.06.3-.1.44a5.84,5.84,0,0,1-.28.77c-.06.14-.13.27-.19.41l.16.35.07-.3c0-.21.07-.32,0-.29.18,0,.25.26.32.46.13-.2.09-.63.37.11v0l-.15,0-.17,0c.11.29.26.5.78,0l-.28.4c-.07,0-.14,0-.22.06s-.34.74-.43,1.24a4.12,4.12,0,0,0,0,1.58.63.63,0,0,0,.18.16l0-.14a1.68,1.68,0,0,1,0,.82A5.49,5.49,0,0,1,97,34.22c.17.05.26.33.3.67,0,.17,0,.36,0,.56l0,.81-.1.62c-.53-.14-.57.73-.89-.14,0,0,0,0,0,0s.06-.26.11-.49v-.28a1.18,1.18,0,0,1,0-.35l0,0L96.44,34a2,2,0,0,0-.1,1.83,2.45,2.45,0,0,1-.23.32v0c-.06.4-.11.61-.17.92l-.15.75c.09.27.17.55.24.82l.12.43a.65.65,0,0,0,.15.18.53.53,0,0,0,.32.15h0a.93.93,0,0,0,0,.13.54.54,0,0,0,0,.24l.22.89.56,2.19c-.08.39-.16.75-.25,1.1a6.38,6.38,0,0,1-.24.63l-.08.14c0,.3-.13.73,0,1-.19.36-.36.29-.51.3H96.3c.08.2.27.32.35.46.14-.3.17-.71.33-.86-.05.15-.1.32-.14.5s-.09.41-.11.47V47h0l0,.33c0,.28,0,.55-.08.79-.08.48-.21.85-.46,1,.34,1.38.6-.65.58.93l0,.34a1.36,1.36,0,0,0,.23-.31,8.07,8.07,0,0,1-.4,4.64l.23.26a1.69,1.69,0,0,1-.27-.14l0,.06.21.91a1.84,1.84,0,0,0-.36-.45c-.1.29-.19.57-.28.86s.13.43.21.68c0,.75.14,1.13.51,1.32l-.12-.05c-.08.3-.16.68-.23,1.08s-.15.77-.24,1.36l-.2.48-.16.34-.07.15.08.39.15.86.14,1-.05.72c.1,0,.19,0,.22.1a.87.87,0,0,1-.25.26v.09A4.14,4.14,0,0,1,96.45,66a10.39,10.39,0,0,0,.4,1.25,1.08,1.08,0,0,0-.19,1.1c-1.15,1.12-.2,0-.59-.45a1.83,1.83,0,0,0-.36.44l0,.68,0,.86v.71l.23.73.29.86.34.9L97,74.28l-.28,1.1-.17.56a2.82,2.82,0,0,1-.14.34,1.82,1.82,0,0,1-.33.47,1.78,1.78,0,0,1-.38.31,1.92,1.92,0,0,0-.4.27,3,3,0,0,0,.52.26l-.16.12a2.77,2.77,0,0,0-.29.87,2.88,2.88,0,0,0,.1.46,6.27,6.27,0,0,1,.36.81l0,.11c.07.11.13.23.2.34l.43.69.1.51,0,.27,0,.2a6.51,6.51,0,0,1,.15.83,3.93,3.93,0,0,1-.21,1.81.64.64,0,0,0-.07.18,1.21,1.21,0,0,0-.28-.19l-.12-.08v.08c.08.89-.13,2.83.3,2.65a1.82,1.82,0,0,0-.2.24.52.52,0,0,0,0,.51l.31.05v.1c-.19.54-.33.8-.49,1.17l-.46,1c-.05.72.14.85.36.93a.86.86,0,0,1,.55.35.52.52,0,0,1,.09.16,5,5,0,0,1,.08.59c0,1-.68,2.8-.91,2.45a1.32,1.32,0,0,0-.46-.93,1.71,1.71,0,0,1-.16.53l0,.31-.09,0V95h-.16l-.06.12-.9,0c0,.32.51.63.89.73.31.29-1.62.66-2.59.57a3.91,3.91,0,0,1-.63-.2A.55.55,0,0,1,91.4,96a.93.93,0,0,1-.18-.61.46.46,0,0,0,0-.16L91,95.11a.94.94,0,0,0-.31-.11h-.49l-1,.3-.55.17a3.41,3.41,0,0,0-.48.17l0,0-.07-.31c-.34-.15-.52.24-.59.33,0-.24-.42-.19-1-.07l-.92.22c-.31.07-.58.13-.91.18h-.05l.06,0c.13.1.3.18.43.28-.11.06-.26.13-.38.18-1.65.46-2.34.08-3.75-.21l-.68-.38a5.39,5.39,0,0,0-.49-.26c-.83-.11-1.44-.4-1.85,0l.15,0-.61-.08-.17.15-.06-.19c-.3-.08-.39-.16-.4-.26a2.57,2.57,0,0,1-2.1.65,5.83,5.83,0,0,0-.61-.05c-.46-.1-.66-.17-1-.24h0c-.28.2-.56.43.16.48-2.19.59.46-.46-1.8-.41l1.47-.11-.67-.14c-.53-.11-1.26-.21-1.56-.26l-.58.12a.5.5,0,0,0-.12.17.24.24,0,0,1-.07-.13l-.79.18L67.56,96l-1,.25s-.06.06-.05.08l-.13,0-.54.13-.86.21-1,.23-1-.08L62,96.75c-.6-.07-1.09-.14-1.77-.26-.31-.08-.44-.13-.67-.2,0,.13.17.2.47.35a8.67,8.67,0,0,0-1-.48h-.44c-.6,0-1.27,0-1.65,0l0,.12a.49.49,0,0,0-.06-.18c0-.1-.15-.17-.29-.23l-.24.13-.81.46-.39.24-.21.12-.3.15c-.4.2-.82.4-1.26.6-.42-.1-.85-.22-1.3-.36l-.57-.18-.43-.15A2,2,0,0,1,50,96.19h0v0l.13-.17-.13,0c-.38.2-.34.11-.29,0s.09-.22,0-.29l-.08,0-.26.09a.85.85,0,0,1-.1.26,2.51,2.51,0,0,1-.55.44l-.36.22-.59.29-1.22.59c-.45-.15-.88-.29-1.25-.38a6.3,6.3,0,0,1,1.25.27l0,0h0a6.64,6.64,0,0,0-.49-.64.47.47,0,0,1,0,.07.2.2,0,0,1,0-.08,1.08,1.08,0,0,0-.53-.26,3.81,3.81,0,0,1-.81.05c0,.08-.12.17-.34.23-.27-.2-.79-.07-1.07-.26h-.16l-.27.22-.12.1-.06,0-.17.1c-.51.29-.77.47-1.64,1a2.28,2.28,0,0,0-1.06,0c-.5-.29-1.09-.62-1.59-.95a5.29,5.29,0,0,1-.93-.94,10.72,10.72,0,0,0-1.11.66.73.73,0,0,0-.18-.17.54.54,0,0,0-.23,0,1.7,1.7,0,0,0-.36.07,3.25,3.25,0,0,0-.66.3l.71,0,.51,0,.1,0,0,0a.26.26,0,0,1,.18,0c.43.08.67.11.57,0,.68.64-.14.35-.22.91a6.18,6.18,0,0,0-.7-.15h-.09l-.35,0c-.21,0-.36-.11-.41-.24A5.25,5.25,0,0,1,34,97.25a1.59,1.59,0,0,1-.81.09l.13-.06a.66.66,0,0,0-.17-.18,4.17,4.17,0,0,0-1.92.24c-.33.11-.66.23-1,.36l-.45.19-.21.09-.36.09-.36,0-.18.05c.19-.14.53-.24.55-.34a.13.13,0,0,0,0-.22,1.08,1.08,0,0,0-.26-.19,2.15,2.15,0,0,1-.22-.18.59.59,0,0,1-.23-.35c-.08,0,0-.1,0-.21l-.55,0a5.3,5.3,0,0,1-1.14-.12l-.75.35c.67,0,.59.07.53.11s0,0,.08,0l.72-.26-.89.4-.81.35a6.07,6.07,0,0,1-1-.4,4.27,4.27,0,0,1-.53-.31c-.14-.1-.28-.22-.44-.36.29.63-1.18.19-1.67-.15.29,0,.65,0,1,0a7.11,7.11,0,0,0-1-.43h-.09l-.18.05,0-.06h-.3a3.22,3.22,0,0,1,.23.67,4.5,4.5,0,0,1-1.61,0,7.13,7.13,0,0,1-.72-.17l-.38.19a4,4,0,0,0-2.19.79l.25-.54-.88.15-.49.08-.12,0,0,0-.08,0a.79.79,0,0,1-.12.09l-.35.1a4.14,4.14,0,0,1-.62.12c-.37,0-.62,0-.65-.25.28.55-.42.8-1.34.93s-2,0-2.63.06a.5.5,0,0,0,.47-.44,6.45,6.45,0,0,1-2,.46,53.26,53.26,0,0,1-5.71-1.51c.21-1.19.4-2.32.54-3.42,0-.09,0-.17,0-.26l.06.13c0-.1,0-.21,0-.32l.21-.13a9.85,9.85,0,0,1-.14-1.16c0-.06,0-.09,0-.14l-.39-.25A1.75,1.75,0,0,1,2.08,90l.5.4-.27-1-.23-.93L2,87.36l0-.83L2,84.7l0-.26.57,0c-.26-.72-.24-1.6-.5-2.31l0,0a2.41,2.41,0,0,1-.1-.61c0-.54.24-.52.4-.77a1.73,1.73,0,0,0,.24-1.24c-.32.27-.67-.41-.62-.73.06.78.59.34.81-.4,0-.12-.06-.23-.08-.32l0-.39c0-.14,0-.26,0-.37l0-.06c-.07-.29-.14-.58-.19-.87s-.1-.58-.13-.87-.12-.95-.14-1.38c.16-.36.33-.71.5-1A1.55,1.55,0,0,1,3,72.75l.23-.25-1-.49.31-1c.05-.16.12-.38.16-.49l.08-.07.06,0a2.8,2.8,0,0,1-.25-1c.58.29.49.4.58-.79l.25,1.29,0,.25c.51-.11-.16-1.17,0-1.82a1.22,1.22,0,0,0-.26-.52L2.54,68l-.14-.28a7.15,7.15,0,0,1-.12-1.59,11.92,11.92,0,0,1,.16-1.26l-.16-1.05.34-1.32c0-.21,0-.42-.06-.64l.12.41.2-.75.06-.2,0-.22a5,5,0,0,1,0-.7l0-.21c-.38,0-.48-.48-.68-.84.28.07.13-1.77.9-1.93a3,3,0,0,0-.11-.28L3,57a.85.85,0,0,1-.27-.32A3.11,3.11,0,0,1,2.74,55c.07-.23.15-.44.23-.66s.05-.16.08-.25S3,53.64,3,53.43s0-.63,0-1H2.81a.29.29,0,0,0-.23.13,1,1,0,0,0-.12.22L2.38,53a1.46,1.46,0,0,0-.07.27l0-.52c0-.14,0-.27,0-.38s.09-.36.22-.36c-.09-.17,0-.52.14-.91A3.49,3.49,0,0,0,3,49.77a1.22,1.22,0,0,0,0-.35L3,49.36c-.09-.94-.16-2.24.39-2.36l-.17-.42c.09-.46.16-.91.22-1.37s0-.63,0-.94v-.83a.33.33,0,0,1-.15.08c-.12,0-.25-.12-.28-.15a.08.08,0,0,1,0,0,1.37,1.37,0,0,1,0-.17l.44.07a.56.56,0,0,0,0-.11L3.39,43l-.13-.15s0,0,0,0l0-.16-.08-.32a7.61,7.61,0,0,1-.18-1.44l.43.54a1.63,1.63,0,0,0,0-.28V41a11,11,0,0,0-.4-1.34l0-.75a2.4,2.4,0,0,0-.06-.31c0-.24.2,0,.32,0,.38-.63,0-1.08-.07-1.62l.27.25c0-.07,0-.16.07-.23s-.12,0-.1.2a2,2,0,0,1,0-.72A1.68,1.68,0,0,1,3.55,36l.07-.07-.05-.29c-.06-.29-.12-.58-.2-.87l-.49-1.83a22.14,22.14,0,0,1-.55-3.67c.15.51.45.2.57,0a3.29,3.29,0,0,1-.74-1.33c-.09-.27-.17-.57-.24-.87l-.05-.23-.07-.4-.14-.87L2,24.3l.15-.62a8.43,8.43,0,0,0,.2-1l.15.82a3.19,3.19,0,0,1,.23-1.23A1,1,0,0,1,2.94,22l.18,0a.86.86,0,0,0,.21-.09,2.5,2.5,0,0,0,.15-.39,1.52,1.52,0,0,1,0-1.15c0-.11,0-.23-.07-.36l-.62,1.32c.21-.95.05-1.77-.39-1.56.38-1.09.73-.1.94-1.76.19,0,.17.53.26.74a6.35,6.35,0,0,1,.51-1.33c.08-.16.15-.32.22-.5-.09,0-.16-.2-.23-.38L4,16.16a.25.25,0,0,0-.13-.1.32.32,0,0,0-.33.07A.53.53,0,0,1,4.24,16a1.3,1.3,0,0,1,.31.21h0c0-.07,0-.14.05-.22s0-.26.06-.39c-.44.09-.56-.07-.63-.19-.15-.28-.26-.5-.56.26C3,14.71,2.74,14,2,12.3l.3-1.5.21-.92L2.67,9l.12-.64,0-.49L2.65,7c-.07-.6-.16-1.22-.28-1.87A3.85,3.85,0,0,0,2.8,2.95h.07L2.8,2.51,4.37,3C6.21,3,7.87,3,8,3.65a.56.56,0,0,0,.07-.09,1.42,1.42,0,0,0,.24.21,1.28,1.28,0,0,0,.33-.1l.21-.1.43-.23,2.47-1.45,1.4.39.73.21.44.11.89.25.63.19h.1c-.14.34-.18.46-.16.52l0,0,.1,0h.22a1.37,1.37,0,0,1,.76.25,1.16,1.16,0,0,1-.43,0,.44.44,0,0,1,.13.5l.34.05h0l-.25-.21A6.86,6.86,0,0,0,17.47,4c-.31-.3-.73-.68.16-.84-.64.25.08.46.42.68l.27-.1.54-.19.65-.07.28,0c-.22-.06-.45-.12-.42-.23,1.63,0,.71-.47,1.8-.73-.11.19,0,.33.22.43a1.67,1.67,0,0,0,.44.1H22l0,0,0,0a.89.89,0,0,1,0,.11c0,.07,0,.15-.16.21l-.54.2a4.44,4.44,0,0,0,.59.15.34.34,0,0,0,.17,0,.34.34,0,0,0,.13-.1s.18-.12.26-.19L23,3a2.18,2.18,0,0,1,.67-.37,2.73,2.73,0,0,1,.48-.11l.85-.1h-.51l-.1,0L24,2.26a4.46,4.46,0,0,0,.5-.07l1.12-.26,1.06.18.64.13c.4.08.81.18,1.21.29a4.75,4.75,0,0,1,1.9.9c.22-.11.53-.41,0-.54A11.56,11.56,0,0,1,31.65,3l.62.11.37.08h.08l.21,0,.16,0,.29,0,.82.07,1,.07a1.68,1.68,0,0,1,1.07.05,7.13,7.13,0,0,0,2.26-.25L38.29,3c.52,0,.95.51,1.57.15,0-.11-.23-.26,0-.31A4.42,4.42,0,0,0,42,2.91l-.62-.26c.26-.07.52-.11.76-.15l.36,0,.44,0,.45,0,.34,0,.65.1c.42.08.82.18,1.23.29a12.17,12.17,0,0,0,2.54.46c0-.27.21-.49.54-.67a4.09,4.09,0,0,1,1.6-.44l.68.1.42,0,.67.08V2.32c.38.08.75.18,1.09.28.12,0,.08,0,.1,0l0,0,.06.06.15.06.9-.19c.65-.13,1-.15,2.19-.46l1,.13.63.12c.43.08.86.15,1.32.21a7.12,7.12,0,0,1,1.83-.46c.36-.05.75-.09,1.16-.12l.62,0,1.1,0,2.15.77L67,2.37l.8,0,.41,0,.32,0a3.84,3.84,0,0,1,1,.27v0l.23-.06c.57-.15,1-.31.87-.69l-.38.17a2.14,2.14,0,0,1,.45-.48,3.7,3.7,0,0,1,1,.09l.61.14.51.14c.48.13,1,.33,1.43.46l-.09.68.2.07.05,0a3.46,3.46,0,0,1,.94.1h.1a8.22,8.22,0,0,1,.88.07c.29,0,.61.1.87.15l.27.09a3,3,0,0,0,.38-.07l.94-.3.87-.31c.33-.13.82-.34,1.18-.52h.11c0-.11-.24-.16-.77-.07a2.56,2.56,0,0,1,1-.05l.19.12A6.35,6.35,0,0,0,82,2.49a1.76,1.76,0,0,0,.61-.27,5.94,5.94,0,0,0,1,.31l.53.13.26.07c.09,0,.08,0,.12.08l.07.05,0-.54,1.63-.21h0l.5-.2.61-.27-.7.33-.27.13L87,2l.45,0,.38-.06L88,2l.36,0,1.26.36,1.11.36-.38-.51a1.7,1.7,0,0,1,1,.71c.16.17.13.31.15.46a1.66,1.66,0,0,0,.13.45.59.59,0,0,0,.22.22A.4.4,0,0,0,92,4L92.17,4l.06,0,.2-.8c.45-.09.9-.2,1.34-.32H93.7a.23.23,0,0,1,.18,0l.92-.26,3-.87-.07.84.31,0-.41,1.34-.11,1.35c-.05.63-.1,1.26-.19,1.88,0,.31-.1.62-.17.92l-.05.23a.57.57,0,0,1,0,.16l-.08.11-.07.14c0,.06,0,.3-.05.45a.58.58,0,0,0,.2-.16.44.44,0,0,0,.08-.16c0-.05,0-.19,0-.18Zm-65.94,87a.4.4,0,0,1-.25-.32,2.44,2.44,0,0,0-1-.13,3.93,3.93,0,0,0-.48.07l-.56.11-.53,0,.1.19-.12,0,.54.06Zm3.7.49c0,.12.25.22.6.14,0-.07,0-.18.06-.28l0,.07a.25.25,0,0,1-.1,0l-.2,0ZM96.91,35.22a.67.67,0,0,0,.26-.19c.05-.44-.06-.58-.18-.64,0,.21,0,.45,0,.77Zm-1-5.49a1.68,1.68,0,0,0-.15.26,2.46,2.46,0,0,0,.15.5.39.39,0,0,1,.33.22l-.08-1.22A.62.62,0,0,0,95.94,29.74Zm.4,6.08c0,.13.09.25.14.39a2.18,2.18,0,0,1,0-.27v-.31A.79.79,0,0,0,96.34,35.82ZM75.87,3.17l-1-.36.5.3Z"/></svg>